<svg width="96" height="29" viewBox="0 0 96 29" fill="none" xmlns="http://www.w3.org/2000/svg">
<g style="mix-blend-mode:difference">
<path d="M26.3897 4.84814L23.6564 2.18671C22.9246 1.47422 21.7386 1.47422 21.0069 2.18671L16.9076 6.17811C16.3954 6.67685 16.3954 7.48433 16.9076 7.98159L20.4367 11.4193C20.9489 11.9181 21.7782 11.9181 22.2889 11.4193L26.3882 7.42793C27.1214 6.71544 27.1214 5.56062 26.3897 4.84814Z" fill="black"/>
<path d="M20.4838 1.64936C21.5067 0.65334 23.1571 0.65334 24.18 1.64936L26.9134 4.31049C27.9476 5.31745 27.9476 6.95883 26.9115 7.96576L26.9105 7.96479L22.8129 11.957L22.8119 11.956C22.0093 12.739 20.7161 12.7386 19.9134 11.957L16.3841 8.5185L16.3851 8.51752C15.5703 7.72513 15.5714 6.43288 16.3851 5.64057L20.4838 1.64936ZM23.1332 2.72357C22.6927 2.2951 21.9711 2.29505 21.5306 2.72357L17.431 6.71576C17.2211 6.92046 17.222 7.24114 17.43 7.4433L17.431 7.44428L20.9603 10.8818L21.0492 10.9531C21.2703 11.0944 21.5735 11.0696 21.765 10.8828L21.766 10.8818L25.8656 6.89057V6.88959C26.2958 6.47154 26.2958 5.80363 25.8666 5.38568L23.1332 2.72357Z" fill="white"/>
<path d="M11.0901 8.73675C11.0901 10.227 10.5885 11.603 9.74093 12.7148L8.37045 14.0492L1.48296 7.34295C0.969221 6.84273 0.969221 6.03228 1.48296 5.53205L5.00598 2.10173C5.51972 1.60151 6.35207 1.60151 6.86581 2.10173L10.0519 5.20401C10.7105 6.22821 11.0901 7.43944 11.0901 8.73675Z" fill="url(#paint0_linear_3316_12395)"/>
<path d="M10.3395 8.73618C10.3394 7.61415 10.0174 6.56735 9.45867 5.67368L6.34246 2.63853C6.11999 2.42203 5.75152 2.42212 5.52898 2.63853L2.00555 6.06919C1.79436 6.27495 1.79436 6.59976 2.00555 6.80552L8.3698 13.0018L9.17156 12.2215C9.90686 11.2411 10.3395 10.038 10.3395 8.73618ZM11.8395 8.73618C11.8395 10.3982 11.2792 11.9334 10.3366 13.1698L10.3034 13.2137L10.2634 13.2518L8.89324 14.5868L8.3698 15.0956L0.959648 7.87974C0.14366 7.08511 0.143658 5.7896 0.959648 4.99497L4.48211 1.56431C5.28699 0.7806 6.58341 0.780694 7.38836 1.56431L10.5749 4.66685L10.6364 4.72642L10.6823 4.79868C11.4158 5.93957 11.8394 7.29045 11.8395 8.73618Z" fill="white"/>
<path d="M25.9807 20.7145C26.5173 21.2369 26.5173 22.083 25.9807 22.6055L22.5385 25.9572C22.0019 26.4796 21.1329 26.4796 20.5963 25.9572L13.75 19.291L15.1845 17.8942C15.3705 17.7651 15.5626 17.6448 15.7608 17.535C16.7638 16.9754 17.924 16.6562 19.1633 16.6562C20.5628 16.6562 21.8647 17.0644 22.9501 17.7665L25.9807 20.7145Z" fill="url(#paint1_linear_3316_12395)"/>
<path d="M19.1631 15.9062C20.7101 15.9062 22.1532 16.3578 23.3574 17.1367L23.4199 17.1768L23.4727 17.2285L26.5039 20.1768C27.3429 20.9936 27.3428 22.3257 26.5039 23.1426L23.0615 26.4941C22.2337 27.3002 20.901 27.3002 20.0732 26.4941L12.6748 19.291L14.6611 17.3564L14.7061 17.3135L14.7568 17.2783C14.9624 17.1356 15.176 17.0016 15.3975 16.8789C16.5096 16.2589 17.7944 15.9063 19.1631 15.9062ZM19.1631 17.4062C18.0541 17.4063 17.0194 17.692 16.126 18.1904L16.124 18.1914C15.9655 18.2793 15.8107 18.3753 15.6592 18.4785L14.8242 19.291L21.1191 25.4199C21.3646 25.6589 21.7702 25.6589 22.0156 25.4199L25.457 22.0684C25.6913 21.8403 25.6913 21.48 25.457 21.252L22.4844 18.3604C21.5294 17.7577 20.3901 17.4062 19.1631 17.4062Z" fill="white"/>
<path d="M19.1345 14.0483L13.7517 8.80712L10.0503 5.20312C10.7089 6.22732 11.0885 7.43855 11.0885 8.73587C11.0885 8.81899 11.0869 8.90063 11.0839 8.98375C11.0229 10.6343 10.2775 12.1899 9.0777 13.3581L8.36731 14.0498L8.31395 14.1018L1.31671 20.9149C0.894432 21.3261 0.894432 21.9926 1.31671 22.4022L5.17053 26.1561C5.5928 26.5673 6.27728 26.5673 6.69803 26.1561L13.5764 19.4588L13.7502 19.2896L14.8889 18.1808C15.1466 17.9299 15.4377 17.7132 15.7548 17.5365L15.7609 17.5336C16.764 16.974 17.9241 16.6548 19.1635 16.6548C20.5629 16.6548 21.8648 17.063 22.9502 17.7651L19.1345 14.0483Z" fill="black"/>
<path d="M23.474 17.2256L22.5433 18.3926C21.5767 17.7674 20.4153 17.4033 19.1634 17.4033C18.0545 17.4034 17.0197 17.6881 16.1263 18.1865L16.1088 18.1973L16.1029 18.1992C15.8498 18.3421 15.6178 18.5159 15.4125 18.7158L14.2738 19.8252L7.22204 26.6914C6.50929 27.3872 5.36054 27.3854 4.64782 26.6914L0.793331 22.9375L0.794308 22.9365C0.0691025 22.2316 0.0706301 21.0806 0.794308 20.376L7.79138 13.5625L7.84411 13.5107L8.55505 12.8184C9.62957 11.772 10.2811 10.3944 10.3343 8.9541C10.3371 8.88019 10.3392 8.80794 10.3392 8.73438C10.3392 7.58574 10.0037 6.51379 9.42028 5.60645L10.5736 4.66406L23.474 17.2256ZM11.8334 9.00977C11.7646 10.8704 10.9257 12.6037 9.60095 13.8936L8.89099 14.585L8.83728 14.6367L1.84021 21.4502C1.73483 21.5528 1.72249 21.7037 1.80017 21.8164L1.83923 21.8623L1.84021 21.8633L5.69372 25.6172C5.82526 25.7453 6.04537 25.7438 6.17419 25.6182L6.17517 25.6172L13.0531 18.9199L13.2269 18.75L14.3656 17.6416C14.6708 17.3444 15.0158 17.0884 15.39 16.8799L15.4086 16.8691L15.4271 16.8604C16.5326 16.2503 17.8066 15.9034 19.1634 15.9033C19.45 15.9033 19.7335 15.918 20.0121 15.9482L11.7963 7.94727C11.8242 8.20582 11.8392 8.46871 11.8392 8.73438C11.8392 8.82667 11.8367 8.91781 11.8334 9.00977Z" fill="white"/>
<path d="M85.7663 24.714C84.6828 24.714 83.7062 24.4484 82.8367 23.9185C81.9579 23.3885 81.2502 22.6736 80.7125 21.7775C80.1854 20.8802 79.9219 19.8771 79.9219 18.7684V9.37605C79.9219 8.29502 80.1908 7.31178 80.7272 6.42369C81.2542 5.52636 81.9619 4.81271 82.8515 4.28277C83.741 3.74225 84.7122 3.47266 85.7663 3.47266C86.8699 3.47266 87.8652 3.733 88.7548 4.2537C89.643 4.78364 90.3466 5.49332 90.8643 6.3814C91.3914 7.26949 91.6549 8.26726 91.6549 9.37605V10.7359C91.6549 10.8126 91.6054 10.8522 91.5091 10.8522H88.1407C88.0632 10.8522 88.023 10.8139 88.023 10.7359V9.60732C88.023 8.85536 87.8077 8.2329 87.3783 7.74128C86.9488 7.24966 86.4111 7.00386 85.7677 7.00386C85.1911 7.00386 84.6788 7.24041 84.2293 7.71353C83.7798 8.18665 83.5551 8.74038 83.5551 9.37737V18.7684C83.5551 19.4146 83.7745 19.9736 84.2146 20.4467C84.6533 20.9093 85.171 21.1419 85.7677 21.1419C86.4124 21.1419 86.9488 20.9146 87.3783 20.4613C87.8077 19.9987 88.023 19.4344 88.023 18.7684V17.3067H85.9282C85.8212 17.3067 85.7677 17.2591 85.7677 17.1627V15.1103C85.769 13.8429 86.9729 13.7028 87.3742 13.7028H91.5372C91.6148 13.7028 91.6549 13.7504 91.6549 13.8469V18.767C91.6549 19.8758 91.3914 20.8802 90.8643 21.7762C90.3279 22.6736 89.6189 23.3872 88.74 23.9171C87.8612 24.4497 86.8699 24.714 85.7663 24.714Z" fill="white"/>
<path d="M69.6267 24.4236H66.6235C66.467 24.4236 66.3894 24.3562 66.3894 24.2214L66.3613 4.03596C66.3613 3.88134 66.4389 3.80469 66.5954 3.80469H69.3056L74.3729 15.482L74.2257 4.03596C74.2257 3.88134 74.314 3.80469 74.4892 3.80469H77.463C77.5807 3.80469 77.6382 3.88134 77.6382 4.03596L77.6676 24.2505C77.6676 24.3668 77.6195 24.4236 77.5218 24.4236H74.8852L69.6855 13.5128L69.9049 24.191C69.9049 24.347 69.8126 24.4236 69.6267 24.4236Z" fill="white"/>
<path d="M37.3804 24.4171H34.2314C34.1043 24.4171 34 24.3153 34 24.1884V4.02941C34 3.90386 34.103 3.80078 34.2314 3.80078H37.3804C37.5088 3.80078 37.6118 3.90386 37.6118 4.02941V24.1884C37.6118 24.3153 37.5088 24.4171 37.3804 24.4171Z" fill="white"/>
<path d="M63.9995 24.4132H60.8506C60.7235 24.4132 60.6191 24.3114 60.6191 24.1845V4.0255C60.6191 3.89996 60.7221 3.79688 60.8506 3.79688H63.9995C64.1266 3.79688 64.2309 3.89863 64.2309 4.0255V24.1845C64.2309 24.3114 64.1279 24.4132 63.9995 24.4132Z" fill="white"/>
<path d="M54.5498 7.37793H54.541L54.5713 24.2793C54.5713 24.3758 54.532 24.4238 54.4531 24.4238H51.0703C50.982 24.4238 50.9375 24.3744 50.9375 24.2793V7.37793H47.042C46.9446 7.37783 46.8966 7.33058 46.8965 7.23438L46.9258 3.9209C46.9258 3.8443 46.9651 3.80469 47.0439 3.80469H54.5498V7.37793ZM58.4385 3.80469C58.5453 3.80475 58.5986 3.84305 58.5986 3.9209V7.23438C58.5986 7.33051 58.56 7.37776 58.4814 7.37793H55.5498V3.80469H58.4385Z" fill="white"/>
</g>
<defs>
<linearGradient id="paint0_linear_3316_12395" x1="6.74555" y1="14.0492" x2="3.24558" y2="2.34667" gradientUnits="userSpaceOnUse">
<stop stop-color="#8B8B8B"/>
<stop offset="0.577966"/>
</linearGradient>
<linearGradient id="paint1_linear_3316_12395" x1="20.0666" y1="16.6562" x2="22" y2="27.0469" gradientUnits="userSpaceOnUse">
<stop stop-color="#8B8B8B"/>
<stop offset="0.577966"/>
</linearGradient>
</defs>
</svg>
